# xmcd CD database file
#
# Track frame offsets:
#	150
#	24146
#	37237
#	49443
#	62659
#	81534
#	93643
#	108444
#	126825
#	147060
#
# Disc length: 2249 seconds
#
# Revision: 0
# Processed by: cddbd v1.5.1PL0 Copyright (c) Steve Scherf et al.
# Submitted via: CDex 1.51
#
DISCID=8d08c70a
DTITLE=Various Artist - Twilight Rhythms
DYEAR=1900
DGENRE=Jazz
TTITLE0=Fly Me To The Moon
TTITLE1=Take The A-Train
TTITLE2=It Don't Mean A Thing
TTITLE3=Flying Home
TTITLE4=It's Crazy
TTITLE5=S'wonderful
TTITLE6=Guarija Flute
TTITLE7=I Gotta Right To Sing The Blues
TTITLE8=September In The Rain
TTITLE9=Sing, Sing, Sing
EXTD=
EXTT0=
EXTT1=
EXTT2=
EXTT3=
EXTT4=
EXTT5=
EXTT6=
EXTT7=
EXTT8=
EXTT9=
PLAYORDER=
